<svg id="Capa_1" data-name="Capa 1" xmlns="http://www.w3.org/2000/svg" viewBox="0 0 283.46 283.46"><defs><style>.cls-1{fill:#343434;}</style></defs><title>iconos</title><path class="cls-1" d="M257.75,43.38c-1.15-1.22-3.22-3.66-13.08-4.87s-63.52,3.65-65.82,8.12-8.4,80.39-8.4,80.39h86a4.53,4.53,0,0,0,2.41-.67c1.37-.86,3.33-2.79,4.41-7C266.46,107.53,258.89,44.6,257.75,43.38ZM215.52,98.31q0,4.8-2.31,7.11a9,9,0,0,1-6.65,2.33h-7.42V72a26.56,26.56,0,0,1,1.46-9.51q1.47-3.8,6.73-3.79c3.5,0,5.75,1.24,6.73,3.71a26.12,26.12,0,0,1,1.46,9.43Zm27.83,0q0,4.8-2.32,7.11t-6.65,2.33H227V72a26.54,26.54,0,0,1,1.47-9.51q1.47-3.8,6.73-3.79t6.72,3.71a25.89,25.89,0,0,1,1.47,9.43Z"/></svg>