<svg id="Capa_1" data-name="Capa 1" xmlns="http://www.w3.org/2000/svg" viewBox="0 0 283.7 283.46"><defs><style>.cls-1{fill:#343434;}</style></defs><title>iconos</title><path class="cls-1" d="M236.7,120.43c-.39,0-.8,0-1.19,0,.64-1.29,1.23-2.61,1.78-4A69.45,69.45,0,0,0,241.72,100q1.32-9.5-2.49-14.86t-13.3-6.69Q215.59,77,211,80.81c-3.1,2.51-5,6.27-5.7,11.3l-4.51,32.36-.87.12c-14.15,3.33-23.1,2.09-23.1,2.09s-1.31-23.94-2.21-31.43,0-56.56,0-56.56S247.73,44.48,260,56.13c3.54,14.36,4.38,68,4.38,69.29C264.38,125.89,252.51,123.55,236.7,120.43Z"/></svg>