<svg id="Capa_1" data-name="Capa 1" xmlns="http://www.w3.org/2000/svg" viewBox="0 0 283.46 283.46"><defs><style>.cls-1{fill:#343434;}</style></defs><title>iconos</title><path class="cls-1" d="M250.58,47.89a4.21,4.21,0,0,0-3.48-2.63c-9.18-1-46.72-5.4-59.35-5.8a4,4,0,0,0-3.37,1.66c-2.18,3-6.49,9-7.06,11.13-2.4,6.07-2.12,52.88-2.06,61.05a4,4,0,0,0,.7,2.22l2.65,3.94a4,4,0,0,0,2.89,1.76c9.56,1.11,53.81,6.09,76.92,5.79a4,4,0,0,0,3.69-2.45C267.27,112.16,255.71,60.61,250.58,47.89ZM233.64,93.51a38.81,38.81,0,0,1-12.18,3.68,52.37,52.37,0,0,1-12.87.18q-7.18-.81-10.4-4.58c-2.16-2.53-3-6.18-2.42-11q.85-7.82,4.48-10.52a12,12,0,0,1,7.94-2.18c.48,0,1,0,1.48.11l22.15,2.46.11,0,4.09.45Z"/></svg>