<svg id="Capa_1" data-name="Capa 1" xmlns="http://www.w3.org/2000/svg" viewBox="0 0 283.46 283.46"><defs><style>.cls-1{fill:#343434;}</style></defs><title>iconos</title><path class="cls-1" d="M255.23,102.11c-.86-1.4-7.29-21,6.84-29.5-.14-5-.2-8.52-.14-8.94.28-1.65-1.15-23.19-18.48-25a34.62,34.62,0,0,0-4.12-.16c-3.25,8.6-5.82,15.49-5.92,16.11-.27,1.65-8.6,21.56-25.56,17.63-7.1-1.65-15-6.15-23.18-12.7q-5.82,3.6-11.66,7.65a101.16,101.16,0,0,0,6.78,30.51c11.27-2.46,21.24-4.66,21.92-5,1.53-.67,22.76-4.55,28.72,11.82,2.36,6.49,3,15,2.14,24.74,21,.37,28.1-3.66,30.2-7.12C259,111.79,255.6,102.72,255.23,102.11Z"/></svg>