<svg id="Capa_1" enable-background="new 0 0 512 512" height="512" viewBox="0 0 512 512" width="512" xmlns="http://www.w3.org/2000/svg"><g><path d="m168.348 0h246.967c17.6 0 31.867 14.267 31.867 31.867v465.133c0 8.284-6.716 15-15 15h-352.364c-8.284 0-15-6.716-15-15v-393.459z" fill="#eaf4ff"/><path d="m432.182 0h-176.182v91.684l20.001 17.307-20.001 19.203v383.806h176.182c8.284 0 15-6.716 15-15v-482c0-8.284-6.715-15-15-15z" fill="#cde7fc"/><path d="m168.348 88.541v-88.541c-3.979 0-7.794 1.581-10.607 4.394l-88.531 88.541c-2.813 2.813-4.393 6.628-4.393 10.606h88.53c8.285 0 15.001-6.715 15.001-15z" fill="#cde7fc"/><path d="m380.966 76.684h-110c-8.284 0-15 6.716-15 15v36.51c0 8.284 6.716 15 15 15s15-6.716 15-15v-21.51h25v61.719h-4.953c-8.284 0-15 6.716-15 15s6.716 15 15 15h39.905c8.284 0 15-6.716 15-15s-6.716-15-15-15h-4.953v-61.719h25v21.51c0 8.284 6.716 15 15 15s15-6.716 15-15v-36.51c.001-8.284-6.714-15-14.999-15z" fill="#312e69"/><path d="m380.966 347.596h-44.738c-8.284 0-15 6.716-15 15s6.716 15 15 15h44.738c8.284 0 15-6.716 15-15s-6.715-15-15-15z" fill="#312e69"/><path d="m380.966 228.403h-249.932c-8.284 0-15 6.716-15 15s6.716 15 15 15h249.933c8.284 0 15-6.716 15-15s-6.716-15-15.001-15z" fill="#515099"/><path d="m380.966 288h-249.932c-8.284 0-15 6.716-15 15s6.716 15 15 15h249.933c8.284 0 15-6.716 15-15s-6.716-15-15.001-15z" fill="#515099"/><path d="m131.034 377.596h156.131c8.284 0 15-6.716 15-15s-6.716-15-15-15h-156.131c-8.284 0-15 6.716-15 15s6.715 15 15 15z" fill="#515099"/><path d="m380.966 407.193h-249.932c-8.284 0-15 6.716-15 15s6.716 15 15 15h249.933c8.284 0 15-6.716 15-15s-6.716-15-15.001-15z" fill="#515099"/><g fill="#312e69"><path d="m380.966 407.193h-125v30h125c8.284 0 15-6.716 15-15s-6.715-15-15-15z"/><path d="m287.164 347.596h-31.198v30h31.198c8.284 0 15-6.716 15-15s-6.716-15-15-15z"/><path d="m380.966 288h-125v30h125c8.284 0 15-6.716 15-15s-6.715-15-15-15z"/><path d="m380.966 228.403h-125v30h125c8.284 0 15-6.716 15-15s-6.715-15-15-15z"/></g></g></svg>